version = 1
nColumns = 19
nRows = 25
inDegrees = yes
endheader 
time	r_ground_force_vx	r_ground_force_vy	r_ground_force_vz	r_ground_force_px	r_ground_force_py	r_ground_force_pz	l_ground_force_vx	l_ground_force_vy	l_ground_force_vz	l_ground_force_px	l_ground_force_py	l_ground_force_pz	r_ground_torque_x	r_ground_torque_y	r_ground_torque_z	l_ground_torque_x	l_ground_torque_y	l_ground_torque_z	
          0.14005341	        102.04837718	        611.00287756	        -24.78521497	          0.26102087	          0.00000000	          0.07660439	          0.00000000	          0.00000000	          0.00000000	          0.00000000	          0.00000000	          0.00000000	          0.00000000	          0.83811279	          0.00000000	          0.00000000	          0.00000000	          0.00000000	
          0.14092203	        104.65509493	        599.23506110	        -22.54949782	          0.26208552	          0.00000000	          0.07677258	          0.00000000	          0.00000000	          0.00000000	          0.00000000	          0.00000000	          0.00000000	          0.00000000	          0.82333155	          0.00000000	          0.00000000	          0.00000000	          0.00000000	
          0.14366651	        111.76112975	        565.22034809	        -16.92087393	          0.26532616	          0.00000000	          0.07742058	          0.00000000	          0.00000000	          0.00000000	          0.00000000	          0.00000000	          0.00000000	          0.00000000	          0.81811794	          0.00000000	          0.00000000	          0.00000000	          0.00000000	
          0.14565555	        117.79053366	        549.29272149	        -16.56046382	          0.26593028	          0.00000000	          0.07817069	          0.00000000	          0.00000000	          0.00000000	          0.00000000	          0.00000000	          0.00000000	          0.00000000	          0.83861847	          0.00000000	          0.00000000	          0.00000000	          0.00000000	
          0.14652417	        120.52370407	        542.92388007	        -16.86610005	          0.26591312	          0.00000000	          0.07852716	          0.00000000	          0.00000000	          0.00000000	          0.00000000	          0.00000000	          0.00000000	          0.00000000	          0.84305419	          0.00000000	          0.00000000	          0.00000000	          0.00000000	
          0.14926864	        129.23926439	        521.65001072	        -16.85258000	          0.26613763	          0.00000000	          0.07959097	          0.00000000	          0.00000000	          0.00000000	          0.00000000	          0.00000000	          0.00000000	          0.00000000	          0.84112297	          0.00000000	          0.00000000	          0.00000000	          0.00000000	
          0.15125769	        134.97351901	        506.57004774	        -16.59294281	          0.26636250	          0.00000000	          0.08032314	          0.00000000	          0.00000000	          0.00000000	          0.00000000	          0.00000000	          0.00000000	          0.00000000	          0.83137047	          0.00000000	          0.00000000	          0.00000000	          0.00000000	
          0.15212630	        137.18135733	        500.21392884	        -16.50210546	          0.26646034	          0.00000000	          0.08063306	          0.00000000	          0.00000000	          0.00000000	          0.00000000	          0.00000000	          0.00000000	          0.00000000	          0.82616198	          0.00000000	          0.00000000	          0.00000000	          0.00000000	
          0.15487078	        143.03946814	        480.85551383	        -16.25033144	          0.26676605	          0.00000000	          0.08156937	          0.00000000	          0.00000000	          0.00000000	          0.00000000	          0.00000000	          0.00000000	          0.00000000	          0.80891398	          0.00000000	          0.00000000	          0.00000000	          0.00000000	
          0.15685982	        146.36955456	        467.32942159	        -16.05702578	          0.26698669	          0.00000000	          0.08221342	          0.00000000	          0.00000000	          0.00000000	          0.00000000	          0.00000000	          0.00000000	          0.00000000	          0.79755734	          0.00000000	          0.00000000	          0.00000000	          0.00000000	
          0.15772844	        147.60413804	        461.50560406	        -15.96464041	          0.26708317	          0.00000000	          0.08248709	          0.00000000	          0.00000000	          0.00000000	          0.00000000	          0.00000000	          0.00000000	          0.00000000	          0.79320495	          0.00000000	          0.00000000	          0.00000000	          0.00000000	
          0.16047292	        150.58450724	        443.43542703	        -15.65044226	          0.26738582	          0.00000000	          0.08332106	          0.00000000	          0.00000000	          0.00000000	          0.00000000	          0.00000000	          0.00000000	          0.00000000	          0.78220481	          0.00000000	          0.00000000	          0.00000000	          0.00000000	
          0.16246196	        152.04061786	        430.55751556	        -15.36779873	          0.26760664	          0.00000000	          0.08390267	          0.00000000	          0.00000000	          0.00000000	          0.00000000	          0.00000000	          0.00000000	          0.00000000	          0.77676755	          0.00000000	          0.00000000	          0.00000000	          0.00000000	
          0.16333058	        152.50531130	        424.95572764	        -15.21046382	          0.26770373	          0.00000000	          0.08415211	          0.00000000	          0.00000000	          0.00000000	          0.00000000	          0.00000000	          0.00000000	          0.00000000	          0.77454541	          0.00000000	          0.00000000	          0.00000000	          0.00000000	
          0.16607505	        152.39344754	        407.98803482	        -14.73777798	          0.26798015	          0.00000000	          0.08489823	          0.00000000	          0.00000000	          0.00000000	          0.00000000	          0.00000000	          0.00000000	          0.00000000	          0.76617856	          0.00000000	          0.00000000	          0.00000000	          0.00000000	
          0.16806410	        151.14230860	        396.21475488	        -14.39337744	          0.26815991	          0.00000000	          0.08540794	          0.00000000	          0.00000000	          0.00000000	          0.00000000	          0.00000000	          0.00000000	          0.00000000	          0.75971673	          0.00000000	          0.00000000	          0.00000000	          0.00000000	
          0.16893271	        150.37259077	        391.15035366	        -14.23991637	          0.26823556	          0.00000000	          0.08562444	          0.00000000	          0.00000000	          0.00000000	          0.00000000	          0.00000000	          0.00000000	          0.00000000	          0.75681264	          0.00000000	          0.00000000	          0.00000000	          0.00000000	
          0.17167719	        147.33681697	        375.49838179	        -13.76863098	          0.26847116	          0.00000000	          0.08626640	          0.00000000	          0.00000000	          0.00000000	          0.00000000	          0.00000000	          0.00000000	          0.00000000	          0.74758061	          0.00000000	          0.00000000	          0.00000000	          0.00000000	
          0.17366623	        144.70980285	        364.41904829	        -13.39674094	          0.26864288	          0.00000000	          0.08669450	          0.00000000	          0.00000000	          0.00000000	          0.00000000	          0.00000000	          0.00000000	          0.00000000	          0.74082432	          0.00000000	          0.00000000	          0.00000000	          0.00000000	
          0.17453485	        143.49620726	        359.62822140	        -13.21250489	          0.26871958	          0.00000000	          0.08687392	          0.00000000	          0.00000000	          0.00000000	          0.00000000	          0.00000000	          0.00000000	          0.00000000	          0.73783886	          0.00000000	          0.00000000	          0.00000000	          0.00000000	
          0.17727933	        139.37512401	        344.64999899	        -12.56583212	          0.26896673	          0.00000000	          0.08742209	          0.00000000	          0.00000000	          0.00000000	          0.00000000	          0.00000000	          0.00000000	          0.00000000	          0.72705782	          0.00000000	          0.00000000	          0.00000000	          0.00000000	
          0.17926837	        136.12113005	        333.88863314	        -12.03279721	          0.26915072	          0.00000000	          0.08780363	          0.00000000	          0.00000000	          0.00000000	          0.00000000	          0.00000000	          0.00000000	          0.00000000	          0.71721464	          0.00000000	          0.00000000	          0.00000000	          0.00000000	
          0.18013699	        134.62572878	        329.20075633	        -11.78299677	          0.26923224	          0.00000000	          0.08796663	          0.00000000	          0.00000000	          0.00000000	          0.00000000	          0.00000000	          0.00000000	          0.00000000	          0.71223458	          0.00000000	          0.00000000	          0.00000000	          0.00000000	
          0.18288146	        129.39554822	        314.58736055	        -10.95362834	          0.26948486	          0.00000000	          0.08846377	          0.00000000	          0.00000000	          0.00000000	          0.00000000	          0.00000000	          0.00000000	          0.00000000	          0.69515540	          0.00000000	          0.00000000	          0.00000000	          0.00000000	
          0.18487051	        125.19927168	        304.16599584	        -10.31918086	          0.26966552	          0.00000000	          0.08881031	          0.00000000	          0.00000000	          0.00000000	          0.00000000	          0.00000000	          0.00000000	          0.00000000	          0.68199067	          0.00000000	          0.00000000	          0.00000000	          0.00000000	
